<svg version="1.2" xmlns="http://www.w3.org/2000/svg" viewBox="0 0 192 192" width="180" height="180">
	<title>ucfguessrfavicon</title>
	<style>
		.s0 { fill: #ffcc00;stroke: #ffffff;paint-order:stroke fill markers;stroke-linejoin: round;stroke-width: 12 } 
		.s1 { fill: #ffffff } 
	</style>
	<rect width="192" height="192" id="Color Fill 2" style="fill: #637de3"/>
	<g id="pin">
		<path id="Color Fill 1" class="s0" d="m96.5 162.7c0 0-10.3-17.7-22-40.5-8.7-17-19.2-36.9-20.8-54.2-2.1-23.6 11.7-43 42.8-43 31.2 0 44.8 18.7 42.7 42.4-1.6 17.3-11.2 37.6-19.9 54.8-11.6 22.9-22.8 40.5-22.8 40.5z"/>
		<path id="Layer 2" fill-rule="evenodd" class="s1" d="m96.5 81.5c-8.8 0-15.9-7.1-15.9-15.9 0-8.8 7.1-15.9 15.9-15.9 8.8 0 15.9 7.1 15.9 15.9 0 8.8-7.1 15.9-15.9 15.9z"/>
	</g>
</svg>